<?xml version="1.0" encoding="UTF-8"?>
<svg id="Layer_1" xmlns="http://www.w3.org/2000/svg" version="1.1" viewBox="0 0 792 612">
  <!-- Generator: Adobe Illustrator 29.5.1, SVG Export Plug-In . SVG Version: 2.1.0 Build 141)  -->
  <defs>
    <style>
      .st0 {
        fill: #414042;
      }

      .st1 {
        fill: #8f753b;
      }
    </style>
  </defs>
  <g>
    <path class="st0" d="M185.94,386.36c0-4.47,8.62-1.49,8.62-8.62v-54.61c0-3.09-.96-4.47-4.05-4.47h-3.83c-7.56,0-12.99,3.94-20.01,12.03-1.38,1.6-2.24,2.45-3.51,2.45-1.17,0-2.13-.75-2.13-2.45,0-1.28.75-3.19,2.34-6.92l3.41-7.88c1.6-3.83,2.77-5.22,4.58-5.22,2.34,0,2.56,2.24,5.64,2.24h45.77c3.09,0,3.41-2.24,5.64-2.24,1.92,0,2.98,1.38,4.68,5.22l3.3,7.88c1.6,3.73,2.34,5.64,2.34,6.92,0,1.7-.96,2.45-2.13,2.45-1.28,0-2.13-.85-3.41-2.45-7.03-8.09-12.45-12.03-20.12-12.03h-3.83c-3.09,0-4.04,1.38-4.04,4.47v54.61c0,7.13,8.73,4.15,8.73,8.62,0,1.28-.74,2.24-2.55,2.24-3.09,0-7.13-.32-11.5-.32s-8.41.32-11.5.32c-1.81,0-2.45-.96-2.45-2.24Z"/>
    <path class="st0" d="M329.96,386.68c0,1.17-.96,1.92-2.34,1.92-1.7,0-4.79-.32-8.83-.32s-8.73.32-11.5.32c-2.02,0-3.19-.75-3.19-2.24,0-3.41,7.03-2.45,7.03-6.17,0-.96-.21-1.92-.74-3.19l-5.64-13.94c-.53-1.49-1.06-1.92-2.77-1.92h-25.97c-1.6,0-2.24.43-2.77,1.92l-5.53,13.84c-.53,1.28-.85,2.24-.85,3.09,0,3.83,7.13,3.09,7.13,6.39,0,1.49-1.17,2.24-3.19,2.24-2.77,0-5.54-.32-8.94-.32s-5.53.32-7.24.32c-1.6,0-2.55-.85-2.55-2.02,0-3.83,5.43-1.81,8.2-8.73l17.67-44.28c2.02-5.22,4.15-10.64,5.53-14.8,2.02-5.85,2.34-6.49,7.66-6.49s5.32.64,7.34,6.49c1.49,4.15,3.62,9.58,5.64,14.8l17.67,43.96c2.77,7.13,8.2,5.32,8.2,9.15ZM301.22,353.9l-12.24-30.55-12.13,30.44c-.53,1.06.11,1.6.96,1.6h22.03c1.28,0,1.7-.64,1.38-1.49Z"/>
    <path class="st0" d="M401.92,388.28h-32.15c-3.83,0-7.66.32-9.37.32-2.13,0-2.98-.96-2.98-2.24,0-4.04,7.13-1.38,7.13-8.51v-54.39c0-7.13-7.13-4.58-7.13-8.73,0-1.06.85-2.13,2.77-2.13,2.45,0,5.54.32,9.58.32s7.45-.32,9.79-.32c1.92,0,2.66,1.06,2.66,2.13,0,4.15-7.03,1.6-7.03,8.73v55.03c0,2.87,1.28,4.04,4.15,4.04h13.2c8.73,0,13.94-5.43,21.72-13.3,1.49-1.6,2.34-2.56,3.62-2.56,1.17,0,2.24.85,2.24,2.24,0,1.6-.75,3.3-2.98,8.09l-4.47,9.15c-1.28,2.66-2.45,4.36-4.26,4.36-2.66,0-2.98-2.24-6.49-2.24Z"/>
    <path class="st0" d="M446.73,352.09c0-22.89,16.5-41.09,39.28-41.09s39.39,17.99,39.39,41.09-17.35,38.21-39.39,38.21-39.28-15.65-39.28-38.21ZM513.58,350.7c0-18.2-11.07-33.32-27.46-33.32s-27.68,15.12-27.68,33.42,11.07,32.79,27.57,32.79,27.57-14.48,27.57-32.89Z"/>
    <path class="st0" d="M630.88,314.72c0,4.15-7.24,1.6-7.24,8.73v62.7c0,2.02-1.17,2.98-2.77,2.98-2.02,0-3.09-1.06-4.15-2.45l-45.66-59.61v50.77c0,7.03,8.62,3.94,8.62,8.62,0,1.17-.85,2.13-2.98,2.13-2.45,0-6.28-.32-8.94-.32-2.34,0-5.64.32-8.09.32-1.81,0-2.77-.96-2.77-2.24,0-4.04,7.24-1.38,7.24-8.51v-54.39c0-7.13-7.24-4.58-7.24-8.62,0-1.17.96-2.24,2.98-2.24,1.7,0,3.51.32,6.07.32,2.24,0,3.3-.21,4.36-.21,1.49,0,2.98.43,4.47,2.34l41.94,55.03v-46.62c0-7.03-8.52-4.04-8.52-8.73,0-1.17,1.07-2.13,2.98-2.13,2.66,0,5.32.32,8.83.32,2.98,0,5.64-.32,8.09-.32,1.92,0,2.77.96,2.77,2.13Z"/>
  </g>
  <g>
    <path class="st0" d="M272.62,438.95c-.53-.73-1.2-1.32-2.03-1.77-.82-.45-1.82-.67-2.99-.67-.6,0-1.2.09-1.82.28-.62.18-1.18.46-1.68.84-.5.38-.91.85-1.22,1.43-.31.57-.46,1.25-.46,2.03s.15,1.42.44,1.92c.3.5.69.93,1.18,1.29.49.36,1.05.65,1.68.88.63.23,1.28.46,1.97.69.84.27,1.69.57,2.55.89.86.32,1.63.74,2.31,1.25.68.52,1.24,1.17,1.68,1.96.43.79.65,1.79.65,3s-.23,2.26-.69,3.14c-.46.88-1.06,1.61-1.8,2.18-.74.57-1.58,1-2.53,1.27-.95.28-1.91.41-2.87.41-.73,0-1.46-.08-2.2-.22s-1.43-.37-2.09-.67-1.28-.68-1.85-1.13c-.57-.46-1.08-.98-1.51-1.58l2.13-1.58c.53.87,1.26,1.6,2.21,2.18.95.58,2.07.88,3.35.88.62,0,1.25-.1,1.89-.29s1.22-.49,1.73-.89c.52-.4.94-.89,1.27-1.48.33-.58.5-1.26.5-2.04,0-.85-.17-1.55-.5-2.11-.33-.56-.77-1.03-1.32-1.41-.55-.38-1.18-.69-1.89-.94-.71-.25-1.45-.5-2.23-.76-.8-.25-1.59-.54-2.37-.86-.78-.32-1.48-.74-2.09-1.25-.62-.52-1.12-1.15-1.49-1.91-.38-.76-.57-1.68-.57-2.78,0-1.17.23-2.17.7-3.02.47-.85,1.08-1.55,1.84-2.09.76-.55,1.59-.95,2.51-1.2.91-.25,1.82-.38,2.71-.38,1.65,0,3.06.29,4.22.88,1.17.58,2.05,1.28,2.64,2.08l-1.96,1.58Z"/>
    <path class="st0" d="M323.33,455.4c-.41.62-.91,1.2-1.49,1.75-.58.55-1.26,1.04-2.03,1.45-.77.42-1.61.75-2.54.99-.93.24-1.94.37-3.04.37-1.83,0-3.52-.32-5.08-.96-1.56-.64-2.9-1.53-4.02-2.66-1.12-1.13-2-2.48-2.63-4.03-.63-1.56-.94-3.26-.94-5.12s.32-3.56.96-5.11c.64-1.56,1.53-2.9,2.66-4.03,1.13-1.13,2.47-2.02,4.02-2.66,1.54-.64,3.22-.96,5.03-.96.89,0,1.77.09,2.63.28.86.19,1.67.45,2.42.79.76.34,1.44.74,2.06,1.21.62.47,1.13,1.01,1.54,1.6l-2.06,1.51c-.25-.39-.59-.78-1.01-1.17-.42-.39-.92-.73-1.49-1.03-.57-.3-1.2-.54-1.87-.72-.68-.18-1.4-.28-2.18-.28-1.58,0-2.99.29-4.24.86-1.25.57-2.31,1.34-3.18,2.31s-1.53,2.09-1.99,3.37c-.46,1.28-.69,2.62-.69,4.04s.23,2.76.7,4.04c.47,1.28,1.14,2.4,2.01,3.37s1.93,1.74,3.18,2.31c1.25.57,2.65.86,4.21.86,1.4,0,2.72-.29,3.98-.86,1.26-.57,2.31-1.49,3.16-2.75l1.92,1.24Z"/>
    <path class="st0" d="M352.72,459.34h-2.47v-24.31h7.14c1.19,0,2.29.11,3.31.34,1.02.23,1.9.6,2.64,1.12.74.52,1.32,1.19,1.73,2.01.41.82.62,1.83.62,3.02,0,.89-.16,1.71-.48,2.44s-.76,1.37-1.3,1.91-1.2.97-1.96,1.29c-.76.32-1.58.53-2.47.62l7.11,11.57h-3.02l-6.73-11.36h-4.12v11.36ZM352.72,445.85h4.29c1.99,0,3.52-.36,4.6-1.08,1.08-.72,1.61-1.8,1.61-3.24,0-.8-.15-1.48-.45-2.03-.3-.55-.71-1-1.24-1.34-.53-.34-1.17-.59-1.92-.76-.75-.16-1.59-.24-2.51-.24h-4.39v8.69Z"/>
    <path class="st0" d="M395.94,457.15h13.01v2.2h-15.48v-24.31h15.07v2.2h-12.6v8.34h11.78v2.2h-11.78v9.37Z"/>
    <path class="st0" d="M438.93,457.15h13.01v2.2h-15.48v-24.31h15.07v2.2h-12.6v8.34h11.78v2.2h-11.78v9.37Z"/>
    <path class="st0" d="M496.67,455.74h.07v-20.7h2.47v24.31h-3.09l-14.14-20.91h-.07v20.91h-2.47v-24.31h3.09l14.14,20.7Z"/>
    <path class="st0" d="M540.1,438.95c-.53-.73-1.2-1.32-2.03-1.77-.82-.45-1.82-.67-2.99-.67-.6,0-1.2.09-1.82.28-.62.18-1.18.46-1.68.84-.5.38-.91.85-1.22,1.43-.31.57-.46,1.25-.46,2.03s.15,1.42.45,1.92c.3.5.69.93,1.18,1.29.49.36,1.05.65,1.68.88.63.23,1.28.46,1.97.69.84.27,1.69.57,2.55.89.86.32,1.63.74,2.31,1.25.69.52,1.24,1.17,1.68,1.96.43.79.65,1.79.65,3s-.23,2.26-.69,3.14c-.46.88-1.06,1.61-1.8,2.18-.74.57-1.58,1-2.53,1.27-.95.28-1.91.41-2.87.41-.73,0-1.47-.08-2.2-.22s-1.43-.37-2.09-.67c-.66-.3-1.28-.68-1.85-1.13-.57-.46-1.08-.98-1.51-1.58l2.13-1.58c.53.87,1.27,1.6,2.22,2.18.95.58,2.07.88,3.35.88.62,0,1.25-.1,1.89-.29.64-.19,1.22-.49,1.73-.89.51-.4.94-.89,1.27-1.48.33-.58.5-1.26.5-2.04,0-.85-.17-1.55-.5-2.11-.33-.56-.77-1.03-1.32-1.41-.55-.38-1.18-.69-1.89-.94-.71-.25-1.45-.5-2.23-.76-.8-.25-1.59-.54-2.37-.86-.78-.32-1.48-.74-2.09-1.25-.62-.52-1.12-1.15-1.49-1.91-.38-.76-.57-1.68-.57-2.78,0-1.17.23-2.17.7-3.02.47-.85,1.08-1.55,1.84-2.09.75-.55,1.59-.95,2.51-1.2.92-.25,1.82-.38,2.71-.38,1.65,0,3.06.29,4.22.88s2.05,1.28,2.64,2.08l-1.96,1.58Z"/>
  </g>
  <path class="st1" d="M447.62,175.55c-1.26.5-2.53.99-3.8,1.43-1.08.38-2.16.72-3.24,1.06-1.23.38-2.45.73-3.68,1.06-1.11.29-2.22.56-3.33.81-1.22.27-2.43.51-3.65.73-1.11.2-2.23.39-3.35.54-1.23.17-2.46.3-3.69.42-1.1.1-2.2.21-3.3.27-1.27.07-2.54.09-3.8.1-.4,0-.8,0-1.2,0,.73-6.05,1.08-11.07,1.24-14.11,16.99-.16,33.81-5.68,50.2-16.51.26-.17.51-.25.74-.25.5,0,.89.39,1.06.91.14.43.11.98-.1,1.62-.58,1.79-1.16,3.57-1.76,5.35-1.97,5.89-5.44,10.57-9.3,12.53-1.99,1.02-3.98,1.92-5.98,2.79-1.02.44-2.05.85-3.08,1.26Z"/>
  <path class="st1" d="M358.25,181.97s11.91-6.73,22.61-4.8c24.1,4.36,31.97,4.75,33.74,4.8l4.84-14.15h-61.19s0,14.15,0,14.15Z"/>
  <path class="st1" d="M401.22,184.36s11.53,1.48,16.92,1.07,9.25-.94,13.2-1.73c.57-.11,1.13-.25,1.7-.37,1.51-.33,3.01-.7,4.52-1.12.63-.17,1.26-.35,1.89-.54,1.56-.47,3.12-.98,4.68-1.54.49-.17.98-.33,1.47-.51,2.03-.76,4.05-1.58,6.07-2.49.06-.03.13-.05.19-.08.21-.09.41-.14.6-.14.64,0,1.11.51,1.28,1.13.11.43.05.95-.19,1.55-.68,1.68-1.37,3.36-2.08,5.03-2.32,5.54-6.15,9.6-10.25,10.86-4.89,1.5-9.8,2.56-14.73,3.23-2.05.28-4.11.5-6.17.64-.22.01-.43.04-.65.06-.06,0-.13,0-.19,0v.07h-1.99c-1.55.05-3.1.06-4.66.03-.32,0-.64-.02-.97-.03h-10.64v-15.13Z"/>
  <path class="st1" d="M401.18,216.45v-13.71h9.26s0,0,0,0c.03,0,.07,0,.1,0h.81v.05c.18.01.36.03.53.03.39.01.79.02,1.18.03,1.63.03,3.26-.03,4.88-.1.88-.03,1.75-.04,2.63-.1,1.7-.12,3.39-.32,5.08-.53.61-.08,1.22-.1,1.82-.19.08-.01.16-.02.24-.02.95,0,1.54.89,1.66,1.57.08.43-.03.91-.31,1.42-.82,1.47-1.65,2.93-2.48,4.38-2.78,4.84-7.02,7.75-11.35,7.77-2.96.03-5.91-.09-8.86-.36l-5.2-.26Z"/>
  <path class="st1" d="M383.12,250.88v-46.64s0-14.5,0-14.5l.55-20h14.73s-.55,81.14-.55,81.14c0,11.19,15.67,6.44,15.67,13.22,0,1.7-.94,3.05-3.78,3.05-5.48,0-12.84-.51-19.26-.51-6.42,0-13.78.51-19.26.51-2.83,0-3.78-1.36-3.78-3.05,0-6.78,15.67-2.03,15.67-13.22Z"/>
  <path class="st1" d="M345.47,182.9l5.01-10.55c2.67-5.5,4.17-7.34,6.84-7.34,3.34,0,3.67,3.06,7.84,3.06h11.5s-5.52,7.45-5.52,7.45c-9.83,1.34-12.12,6.53-21.5,16.55-2,2.14-3.17,3.36-5.01,3.36-1.5,0-2.84-.92-2.84-2.9,0-1.68,1.17-4.28,3.67-9.63Z"/>
  <polygon class="st1" points="379.12 225.55 379.12 209.66 364 228.65 368.62 236.08 367.85 229.06 379.12 225.55"/>
  <path class="st1" d="M400.95,219.1s10.27,1,11.97.79c.61-.08,1.22-.1,1.82-.19.08-.01.16-.02.24-.02.95,0,1.54.89,1.66,1.57.08.43-.03.91-.31,1.42-.82,1.47-1.65,2.93-2.48,4.38-2.78,4.84-7.18,6.23-11.51,6.26-.46,0-.93-.02-1.39-.02v-14.2Z"/>
</svg>